Coordinates
version=1
nRows=9
nColumns=36
inDegrees=yes

Units are S.I. units (second, meters, Newtons, ...)
If the header above contains a line with 'inDegrees', this indicates whether rotational values are in degrees (yes) or radians (no).

endheader
time	pelvis_tilt	pelvis_list	pelvis_rotation	pelvis_tx	pelvis_ty	pelvis_tz	hip_flexion_r	hip_adduction_r	hip_rotation_r	knee_angle_r	knee_angle_r_beta	ankle_angle_r	subtalar_angle_r	mtp_angle_r	hip_flexion_l	hip_adduction_l	hip_rotation_l	knee_angle_l	knee_angle_l_beta	ankle_angle_l	subtalar_angle_l	mtp_angle_l	lumbar_extension	lumbar_bending	lumbar_rotation	arm_flex_r	arm_add_r	arm_rot_r	elbow_flex_r	pro_sup_r	arm_flex_l	arm_add_l	arm_rot_l	elbow_flex_l	pro_sup_l
      1.16666670	     -6.63146252	      2.62445491	     -4.58021505	     -0.01988232	      1.18716215	     -0.07567645	      8.54656879	     -3.23768323	     -4.62734000	     16.27200609	      0.28400008	     15.75455040	     -6.45107160	     -7.49999987	     10.99208140	     -1.33476660	    -13.49045502	     17.52420517	      0.30585508	     10.49621951	     -8.82120629	     -7.49999987	     -6.77693611	     -2.46768348	     -3.59269204	     -9.17924859	    -15.72287473	     10.78120852	     50.92379391	     70.26225825	     -9.40237265	    -19.46261810	     13.85212981	     47.69009483	     74.97065108
      1.18333330	     -7.04674934	      2.55061928	     -4.59513744	     -0.01900988	      1.18391489	     -0.07695142	     10.56435709	     -3.21622365	     -3.87912279	     19.39305378	      0.33847264	     16.68582660	     -7.95790227	     -7.49999987	     12.87926532	     -1.61480613	    -12.23834477	     20.66014260	      0.36058751	     11.08137467	    -11.51386917	     -7.49999987	     -7.52501080	     -2.48896031	     -3.60624167	    -10.22470497	    -16.96497944	     11.23550482	     53.90199841	     69.79850032	    -10.40852194	    -20.32240168	     13.90733085	     49.76701531	     74.09614411
      1.20000000	     -7.45329750	      2.45675181	     -4.65206271	     -0.01557650	      1.18088781	     -0.07778355	     12.86499442	     -3.15169433	     -2.81443092	     22.97546734	      0.40099755	     17.27619580	    -10.26860963	     -7.49999987	     14.95474603	     -1.72872106	    -10.45569665	     24.09831265	      0.42059490	     10.82245201	    -15.69800545	     -7.49999987	     -8.40835780	     -2.39766515	     -3.80659911	    -11.35734023	    -18.36659532	     11.70839004	     57.27640025	     73.76437363	    -12.12236629	    -20.80466215	     12.38148139	     52.38637089	     77.52487124
      1.21666670	     -7.78032350	      2.34394630	     -4.91969333	     -0.01289146	      1.17249116	     -0.07872225	     15.23932580	     -3.08966894	     -1.83924101	     26.97967472	      0.47088416	     18.55022395	    -12.01199014	     -7.49999987	     17.11985269	     -1.92413477	     -9.22288302	     28.00187758	      0.48872496	     11.84707426	    -18.13247343	     -7.49999987	     -9.13128764	     -2.28363870	     -3.76837269	    -12.21551967	    -19.57309961	     12.26280202	     59.74408205	     73.99604247	    -13.23568961	    -21.36427157	     12.62709664	     53.91552746	     77.55817688
      1.23333330	     -8.02474988	      2.27617846	     -5.23194400	     -0.01239266	      1.16892440	     -0.07784688	     17.61228288	     -2.98987113	     -0.75510415	     31.10058825	      0.54280766	     19.74632616	    -13.88765890	     -7.49999987	     19.21933109	     -2.01107595	     -8.03230385	     32.05524029	      0.55946949	     12.59712049	    -21.12876109	     -7.49999987	    -10.10299929	     -2.29956523	     -3.54189946	    -12.77004075	    -20.43174494	     12.73309690	     61.68639510	     73.10362560	    -13.99924956	    -21.71186709	     12.54768758	     55.35010552	     76.08464444
      1.25000000	     -8.18661681	      2.14956727	     -5.55940837	     -0.01584394	      1.16294869	     -0.07801085	     19.76547670	     -2.77208518	      0.23625406	     34.79004969	      0.60720091	     21.46279386	    -14.94192905	     -7.49999987	     21.38771284	     -2.12834639	     -6.93954944	     36.17334110	      0.63134390	     13.47404198	    -23.79083712	     -7.49999987	    -11.20801693	     -2.22373578	     -3.44098680	    -12.59697896	    -21.15303350	     13.80678833	     62.80549504	     72.65071607	    -14.21858746	    -21.98329345	     12.75513134	     56.56746047	     74.86101681
      1.26666670	     -8.08622053	      1.81007902	     -5.83537639	     -0.01451952	      1.14889794	     -0.07788126	     21.81479141	     -2.34070331	      0.97940994	     39.17312217	      0.68369996	     23.25126715	    -16.13505582	     -7.49999987	     23.59510117	     -2.52970488	     -6.01685112	     41.05417717	      0.71653056	     14.81979254	    -25.96857549	     -7.49999987	    -12.53642255	     -2.04667356	     -3.34457160	    -12.07663580	    -21.64081719	     14.58802116	     63.32657750	     73.12895982	    -14.03688900	    -22.07594377	     12.87602494	     57.40736739	     74.93141939
      1.28333330	     -7.94074823	      1.58579354	     -6.10263045	     -0.00679510	      1.14012572	     -0.07758589	     23.48276609	     -2.02847845	      1.51099938	     43.28506646	      0.75546693	     25.76271892	    -16.82873210	     -7.49999987	     25.43656249	     -2.72342219	     -5.14062513	     45.18793845	      0.78867831	     16.96278241	    -26.96185963	     -7.49999987	    -13.71749668	     -1.96945538	     -3.69173556	    -10.82658644	    -22.10272520	     16.65568128	     62.87177881	     73.18548897	    -14.04831995	    -21.88823130	     12.82204780	     57.75750930	     73.30387336
      1.30000000	     -7.79468853	      1.24634649	     -6.19391572	     -0.00528120	      1.12673582	     -0.07827400	     25.07926789	     -1.63613760	      1.77035215	     47.49051991	      0.82886594	     28.62582690	    -17.39355173	     -7.49999987	     27.43795191	     -3.03218185	     -4.33897708	     49.83123915	      0.86971919	     19.71419663	    -27.71399068	     -7.49999987	    -15.09420630	     -1.73184626	     -3.59074483	    -10.03159931	    -22.10159725	     17.20780579	     62.65648782	     73.65244277	    -13.21282412	    -21.66648416	     12.78223766	     58.13210012	     73.39354013
